<svg width="443" height="501" viewBox="0 0 443 501" fill="none" xmlns="http://www.w3.org/2000/svg">
<path d="M410.006 302.958C379.39 291.185 277.848 267.568 237.557 255.778C274.664 244.123 384.362 214.177 413.412 199.16C476.352 167.459 418.477 68.5764 360.353 112.006C331.292 133.72 252.128 222.318 227.897 247.389C234.432 198.847 273.303 100.134 273.381 54.9291C273.504 -15.3896 175.158 -22.2582 175.017 58.106C174.956 93.2652 211.834 212.202 218.223 247.373C174.743 215.486 111.998 135.012 76.5627 113.185C20.1891 77.9268 -38.0191 169.909 32.8664 205.193C55.4229 215.277 184.365 245.639 214.983 255.738C168.191 274.073 68.1938 288.967 32.6794 312.345C-31.8938 355.763 27.6171 441.254 85.7377 399.499C111.572 379.453 190.736 290.855 218.194 264.115C208.434 312.652 172.818 394.628 172.715 453.227C172.613 511.826 270.957 520.369 271.079 450.05C271.185 389.777 237.481 299.308 227.868 264.132C272.958 297.696 337.335 366.453 366.309 394.966C412.985 443.601 485.743 329.878 410.006 302.958Z" fill="#1E1E1E"/>
</svg>
