<svg width="21" height="22" viewBox="0 0 21 22" fill="none" xmlns="http://www.w3.org/2000/svg">
<path fill-rule="evenodd" clip-rule="evenodd" d="M0 21.4548C0.804696 21.7553 1.8052 21.9999 3.05022 21.9999C4.32867 21.9999 5.46545 21.7097 6.41902 21.2089C8.4309 20.1583 9.63146 18.172 9.63146 15.9905C9.6251 14.6383 9.19865 13.6288 8.51177 12.8386C7.74294 11.9491 6.64357 11.3378 5.44201 10.8285H15.5604V18.7222C15.5604 20.6132 14.5932 21.0346 12.5644 21.0346V21.543H20.1331V21.0346C17.8007 21.0346 17.1664 20.6132 17.1664 18.7222V3.36289C17.1664 1.47196 17.8007 1.05274 20.1331 1.05274V0.542099H12.5644V1.05274C14.5887 1.05274 15.5604 1.47196 15.5604 3.36289V10.1751H5.1668L5.17106 10.1747C3.98269 10.1747 1.37187 9.21028 0.824086 9.00286L0.722135 8.95525V8.96292C0.469735 8.83579 0.22805 8.70165 0 8.55824V10.3652C0.795709 10.7302 1.6584 11.0289 2.51381 11.325C5.33405 12.3015 8.07507 13.2505 8.07507 16.4564C8.07507 17.5036 7.84484 18.4068 7.42559 19.1419C6.61692 20.5465 5.11492 21.3333 3.20982 21.3333C2.36939 21.3467 1.53276 21.2185 0.73563 20.9542V20.9755C0.47799 20.8865 0.232807 20.7816 0 20.6607V21.4548ZM0 0.662841V1.52321C0.791718 0.980111 1.77766 0.639965 2.89277 0.639965C6.19243 0.639965 8.16055 2.35027 8.16055 6.46216H8.79708L8.79691 6.45334H8.80148L8.67777 0.0915041H8.07272L8.07086 0.0981074H8.07057C8.06649 0.112751 8.06221 0.127081 8.05775 0.141102C7.79439 0.94982 6.88774 0.717805 5.70377 0.414821C4.94969 0.221848 4.08311 8.53767e-05 3.19857 8.53767e-05C2.35901 -0.00377646 1.52406 0.123396 0.724386 0.376934V0.385125C0.472841 0.466381 0.231278 0.559413 0 0.662841Z" fill="#F2F2F2"/>
</svg>
