<?xml version="1.0" standalone="no"?>
<!DOCTYPE svg PUBLIC "-//W3C//DTD SVG 20010904//EN"
 "http://www.w3.org/TR/2001/REC-SVG-20010904/DTD/svg10.dtd">
<svg version="1.0" xmlns="http://www.w3.org/2000/svg"
 width="260.000000pt" height="260.000000pt" viewBox="0 0 260.000000 260.000000"
 preserveAspectRatio="xMidYMid meet">
<metadata>
Created by potrace 1.14, written by Peter Selinger 2001-2017
</metadata>
<g transform="translate(0.000000,260.000000) scale(0.100000,-0.100000)"
fill="#000000" stroke="none">
<path d="M866 1880 c-72 -13 -106 -29 -106 -52 0 -15 4 -18 18 -13 92 39 165
45 251 19 95 -28 152 -110 168 -241 4 -35 10 -53 19 -53 11 0 14 33 14 170 0
160 -1 170 -19 170 -10 0 -21 -7 -25 -15 -7 -19 -51 -19 -125 -1 -81 20 -139
25 -195 16z"/>
<path d="M1430 1847 c0 -9 16 -16 44 -20 60 -8 92 -25 105 -54 7 -15 11 -100
11 -229 l0 -206 -302 4 -303 3 -108 38 c-60 20 -111 37 -113 37 -10 0 -3 -79
9 -87 6 -6 59 -27 117 -47 240 -85 300 -141 300 -284 0 -189 -156 -291 -363
-237 -70 18 -67 18 -67 0 0 -20 28 -33 101 -44 223 -36 413 109 413 314 0 111
-45 181 -157 245 l-52 30 263 0 262 0 0 -236 c0 -142 -4 -243 -10 -255 -15
-27 -63 -49 -110 -49 -29 0 -40 -4 -40 -15 0 -13 30 -15 206 -15 160 0 205 3
202 13 -3 6 -28 14 -57 17 -42 5 -59 12 -77 33 l-24 28 0 467 c0 403 2 471 15
489 16 23 70 43 118 43 19 0 27 4 25 13 -7 19 -408 23 -408 4z"/>
</g>
</svg>
